<svg xmlns="http://www.w3.org/2000/svg" viewBox="0 0 1903.52 1023.67"><defs><style>.cls-1,.cls-11,.cls-14{fill:none;}.cls-1,.cls-14,.cls-15,.cls-2,.cls-3,.cls-4,.cls-5,.cls-6,.cls-7,.cls-8{stroke:#202f38;stroke-width:3px;}.cls-1,.cls-11,.cls-2,.cls-3,.cls-4,.cls-5,.cls-6{stroke-linecap:round;}.cls-1,.cls-14,.cls-15,.cls-2,.cls-3,.cls-4,.cls-5,.cls-6,.cls-8{stroke-linejoin:round;}.cls-2{fill:#fff;}.cls-3{fill:#00a79b;}.cls-13,.cls-4{fill:#a4dad8;}.cls-5{fill:#def2c8;}.cls-6{fill:#e4f3f2;}.cls-15,.cls-7,.cls-8,.cls-9{fill:#ffe463;}.cls-11,.cls-7{stroke-miterlimit:10;}.cls-10{fill:#202f38;}.cls-11{stroke:#a7a7a8;stroke-width:4px;stroke-dasharray:0 14;}.cls-12{fill:#a7a7a8;}.cls-15{stroke-dasharray:7 5;}</style></defs><title>Asset 1</title><g id="Layer_2" data-name="Layer 2"><g id="Layer_1-2" data-name="Layer 1"><path class="cls-1" d="M1729.68,440.87v-28a21,21,0,0,0-21-21h-90a21,21,0,0,1-21-21v-75"/><rect class="cls-2" x="1592.56" y="301.07" width="11.14" height="24.7"/><rect class="cls-3" x="1595.4" y="285.97" width="5.47" height="15.1"/><path class="cls-2" d="M329.75,409.28"/><path class="cls-3" d="M87.76,391.54h25.49a0,0,0,0,1,0,0v41.79a7.85,7.85,0,0,1-7.85,7.85H87.76a7.85,7.85,0,0,1-7.85-7.85V399.39A7.85,7.85,0,0,1,87.76,391.54Z"/><path class="cls-3" d="M312.23,391.54h17.64a7.85,7.85,0,0,1,7.85,7.85v41.79a0,0,0,0,1,0,0H312.23a7.85,7.85,0,0,1-7.85-7.85V399.39a7.85,7.85,0,0,1,7.85-7.85Z" transform="translate(642.11 832.72) rotate(180)"/><path class="cls-2" d="M204.34,423.77c-38.34.1-74.1-1.66-106.89-4.54a18.58,18.58,0,0,1-11.17-4.92c-.65-.62-1.31-1.29-2-2l0-.05A18.44,18.44,0,0,1,80,402.45a213.22,213.22,0,0,1-1.56-39.06c.3-5.73.82-11.18,1.49-16.32a19,19,0,0,1,3.8-9.15l9.72-12.63a18.81,18.81,0,0,0,3-5.64,241.08,241.08,0,0,1,25.87-54.83,19,19,0,0,1,14.86-8.69c22.86-1.39,120-1.39,142.9,0a19,19,0,0,1,14.86,8.69,241.08,241.08,0,0,1,25.87,54.83,18.81,18.81,0,0,0,3,5.64l9.72,12.63a19,19,0,0,1,3.8,9.15c.67,5.14,1.19,10.59,1.49,16.32a213.21,213.21,0,0,1-1.56,39.06,18.44,18.44,0,0,1-4.32,9.79l0,.05c-.65.73-1.3,1.41-2,2a18.58,18.58,0,0,1-11.17,4.92c-32.79,2.88-68.55,4.64-106.89,4.54Z"/><path class="cls-4" d="M311.48,323.58c0-9.41-6.82-19-12.11-29.72A222.55,222.55,0,0,0,287.59,273a17.5,17.5,0,0,0-13.72-8c-21.1-1.28-110.81-1.28-131.91,0a17.5,17.5,0,0,0-13.72,8,222.54,222.54,0,0,0-23.89,50.61S311.48,325.25,311.48,323.58Z"/><path class="cls-2" d="M92.51,325H72.79a12,12,0,0,1-11-7.25L61,316.13a8.45,8.45,0,0,1,7.75-11.81h9.74a14,14,0,0,1,14,14Z"/><path class="cls-2" d="M323,325h19.72a12,12,0,0,0,11-7.25l.72-1.66a8.45,8.45,0,0,0-7.75-11.81H337a14,14,0,0,0-14,14Z"/><circle class="cls-5" cx="109.42" cy="357.59" r="11.24"/><circle class="cls-5" cx="132.64" cy="365" r="7.54"/><circle class="cls-5" cx="301.05" cy="357.59" r="11.24"/><circle class="cls-5" cx="277.83" cy="365" r="7.54"/><line class="cls-1" x1="150.29" y1="373.57" x2="261.42" y2="373.57"/><line class="cls-1" x1="150.29" y1="362.65" x2="261.42" y2="362.65"/><path class="cls-2" d="M337.05,395.51a19.62,19.62,0,0,1-11.8,5.2c-34.63,3-72.38,4.9-112.87,4.79h-8.95c-40.49.11-78.24-1.75-112.87-4.79a19.62,19.62,0,0,1-11.8-5.2"/><path class="cls-6" d="M79.44,395.51a19.62,19.62,0,0,0,11.8,5.2c34.63,3,72.38,4.9,112.87,4.79h8.95c40.49.11,78.24-1.75,112.87-4.79a19.62,19.62,0,0,0,11.8-5.2l-.51,6.93a18.44,18.44,0,0,1-4.32,9.79l0,.05c-.65.73-1.3,1.41-2,2a18.58,18.58,0,0,1-11.17,4.92c-32.79,2.88-68.55,4.64-106.89,4.54h-8.48c-38.34.1-74.1-1.66-106.89-4.54a18.58,18.58,0,0,1-11.17-4.92c-.65-.62-1.31-1.29-2-2l0-.05A18.44,18.44,0,0,1,80,402.45Z"/><polygon class="cls-3" points="809.29 879.2 768.26 879.2 776.26 864.12 801.29 864.12 809.29 879.2"/><path class="cls-3" d="M874,880.45H841.82v-4.68a4.58,4.58,0,0,1,4.58-4.58h22.72a4.58,4.58,0,0,1,4.58,4.58S873.49,879.95,874,880.45Z"/><path class="cls-3" d="M712.32,878v-3.2a2.4,2.4,0,0,1,2.4-2.4h5.33a2.4,2.4,0,0,1,2.4,2.4v3.13Z"/><rect class="cls-3" x="687.46" y="878.21" width="202.62" height="140.99" rx="17.87" ry="17.87"/><path class="cls-2" d="M890.09,915.3V896.08a17.87,17.87,0,0,0-17.87-17.87H705.33a17.87,17.87,0,0,0-17.87,17.87V915.3S890.09,916.33,890.09,915.3Z"/><rect class="cls-6" x="856.22" y="891.74" width="17.78" height="12.37"/><path class="cls-2" d="M687.46,982.11v19.22a17.87,17.87,0,0,0,17.87,17.87H872.22a17.87,17.87,0,0,0,17.87-17.87V982.11S687.46,981.08,687.46,982.11Z"/><circle class="cls-4" cx="788.78" cy="949.62" r="53.5"/><circle class="cls-6" cx="788.78" cy="949.59" r="45.9"/><path class="cls-2" d="M758.86,984.4a45.9,45.9,0,0,1,59.84-69.62"/><path class="cls-2" d="M537.36,512.53l-4.19-67c0-.32,0-.64,0-1q0-3.27.32-6.53l6.79-78.26a8.75,8.75,0,0,1,17.48,0L565,439.19q.3,3.25.34,6.52c0,.33,0,.65,0,1l-3.92,65.81a11.85,11.85,0,0,1-11.81,11.15h-.34A11.85,11.85,0,0,1,537.36,512.53Z"/><path class="cls-2" d="M534.9,557.64,479,594.77c-.27.18-.54.35-.82.5q-2.85,1.6-5.81,3l-71.17,33.25a8.75,8.75,0,0,1-8.78-15.12l65.21-46q2.67-1.88,5.47-3.56c.28-.17.57-.32.86-.47l59-29.51a11.85,11.85,0,0,1,15.56,4.65l.17.3A11.85,11.85,0,0,1,534.9,557.64Z"/><path class="cls-2" d="M575.2,536.85l60.13,29.88q.43.21.85.46,2.81,1.67,5.49,3.54l64.38,45a8.75,8.75,0,0,1-8.71,15.16l-72.42-33.48q-3-1.37-5.82-3c-.28-.16-.56-.33-.83-.51l-55-36.3a11.85,11.85,0,0,1-3.75-15.8l.17-.3A11.85,11.85,0,0,1,575.2,536.85Z"/><polygon class="cls-6" points="571.09 798.77 527.37 798.77 538.03 549.77 559.36 549.77 571.09 798.77"/><rect class="cls-3" x="511.64" y="798.77" width="75.18" height="19.2"/><circle class="cls-3" cx="549.23" cy="537.1" r="28.92"/><circle class="cls-5" cx="549.23" cy="537.27" r="18.8"/><rect class="cls-6" x="1066.94" y="339.01" width="24.36" height="293.35"/><rect class="cls-6" x="1059.56" y="316.52" width="39.11" height="23.47"/><rect class="cls-2" x="1027.77" y="43.5" width="102.68" height="277.76" rx="21.92" ry="21.92"/><circle class="cls-3" cx="1079.12" cy="99.53" r="34.41"/><circle class="cls-7" cx="1079.12" cy="184.6" r="34.41"/><circle class="cls-4" cx="1079.12" cy="269.18" r="34.41"/><path class="cls-3" d="M1040,667.56a39.11,39.11,0,0,1,78.23,0Z"/><path class="cls-6" d="M153.12,749.51V656a73.67,73.67,0,0,1,73.45-73.45h24.21A73.67,73.67,0,0,1,324.24,656v93.54s-15.15-.06-12.9-.06V657A62.56,62.56,0,0,0,249,594.58H228.4A62.56,62.56,0,0,0,166,657v92.55Z"/><rect class="cls-3" x="178.07" y="670.83" width="23.63" height="104.9"/><rect class="cls-3" x="275.81" y="670.83" width="23.63" height="104.9"/><rect class="cls-2" x="299.52" y="691.23" width="11.82" height="58.27"/><rect class="cls-2" x="166.03" y="691.23" width="11.82" height="58.27"/><path class="cls-1" d="M287.63,775.73V794A23.62,23.62,0,0,1,264,817.62H164.92a23.62,23.62,0,0,0-23.62,23.62h0a23.62,23.62,0,0,0,23.62,23.62H281.81a23.62,23.62,0,0,1,23.62,23.62v9.32a23.62,23.62,0,0,1-23.62,23.62H228.55A23.62,23.62,0,0,0,204.93,945v3a23.62,23.62,0,0,0,23.62,23.62H331.39A23.62,23.62,0,0,0,355,948V679.49"/><rect class="cls-2" x="349.68" y="668.79" width="11.14" height="24.7"/><rect class="cls-3" x="352.51" y="653.69" width="5.47" height="15.1"/><polygon class="cls-8" points="1568.9 807.9 1618.06 754.32 1592.16 744.78 1610.36 695.41 1561.2 748.99 1587.09 758.53 1568.9 807.9"/><polygon class="cls-8" points="1574.54 677.63 1596.13 654.11 1584.76 649.92 1592.75 628.25 1571.16 651.77 1582.53 655.96 1574.54 677.63"/><polygon class="cls-8" points="1645.49 729.57 1667.07 706.05 1655.7 701.86 1663.69 680.18 1642.1 703.71 1653.47 707.9 1645.49 729.57"/><path class="cls-3" d="M1493.39,1013.74h14.24v6.4a2,2,0,0,1-2,2h-10.05a2,2,0,0,1-2-2A63.12,63.12,0,0,0,1493.39,1013.74Z"/><path class="cls-3" d="M1362.06,1013.74h14.24v6.4a2,2,0,0,1-2,2h-10.05a2,2,0,0,1-2-2A63.12,63.12,0,0,0,1362.06,1013.74Z"/><path class="cls-2" d="M1363.72,643.74h142.42a25.2,25.2,0,0,1,25.2,25.2v207.8a0,0,0,0,1,0,0h-193a0,0,0,0,1,0,0V669.12A25.38,25.38,0,0,1,1363.72,643.74Z"/><path class="cls-2" d="M1338.34,771.12h193a0,0,0,0,1,0,0V990.54a25.2,25.2,0,0,1-25.2,25.2h-142.6a25.2,25.2,0,0,1-25.2-25.2V771.12A0,0,0,0,1,1338.34,771.12Z"/><rect class="cls-4" x="1363.66" y="671.23" width="9" height="77.09" transform="translate(2736.31 1419.55) rotate(180)"/><rect class="cls-4" x="1363.66" y="800.74" width="9" height="156" transform="translate(2736.31 1757.48) rotate(180)"/><rect class="cls-4" x="1486.65" y="669.82" width="19.5" height="14.5"/><path class="cls-7" d="M630.52,439.53H575.44V426.76h55.09a11.12,11.12,0,1,0-11.12-11.12H606.63a23.9,23.9,0,1,1,23.9,23.9Z"/><path class="cls-7" d="M598.05,493.34a20.29,20.29,0,0,1-20.27-20.27h12.78a7.49,7.49,0,1,0,7.49-7.49H550.74V452.81h47.31a20.27,20.27,0,1,1,0,40.53Z"/><path class="cls-7" d="M659.82,493.34a20.29,20.29,0,0,1-20.27-20.27h12.78a7.49,7.49,0,1,0,7.49-7.49H630V452.81h29.85a20.27,20.27,0,1,1,0,40.53Z"/><path class="cls-8" d="M68.09,625.69A5.12,5.12,0,0,0,63,620.58H22.62a5.12,5.12,0,0,0-5.12,5.12v55.2a17.09,17.09,0,0,0-5.93.87c-7.13,2.36-11.46,8.68-9.66,14.11s9,7.93,16.17,5.57,9.7-8.7,9.66-14.11h0V630.81H57.85v32.46a17,17,0,0,0-6.37.85c-7.13,2.36-11.46,8.68-9.66,14.11s9.1,8.11,16.17,5.57c10.23-3.68,10.1-14.11,10.1-14.11Z"/><path class="cls-9" d="M91.6,741c-3.72,0-6.74-1.88-7.71-4.8a6.86,6.86,0,0,1,1.05-6.11,10.79,10.79,0,0,1,5.54-4,11.55,11.55,0,0,1,2.43-.53V694.76a4.49,4.49,0,0,1,4.49-4.49h27a4.49,4.49,0,0,1,4.49,4.49v25.69a10.42,10.42,0,0,1-6.89,9.65,10.86,10.86,0,0,1-3.69.66h0c-3.64,0-6.72-1.95-7.68-4.85a6.86,6.86,0,0,1,1.05-6.11,10.78,10.78,0,0,1,5.54-4,11.64,11.64,0,0,1,2.69-.55v-16H101.89v31.5a9.76,9.76,0,0,1-6.67,9.66A11.52,11.52,0,0,1,91.6,741Z"/><path class="cls-10" d="M124.44,691.77a3,3,0,0,1,3,3v25.69a9,9,0,0,1-5.9,8.24,9.4,9.4,0,0,1-3.18.57c-2.94,0-5.48-1.47-6.26-3.82-1-3.17,1.48-6.86,5.64-8.24a10,10,0,0,1,3.15-.52l.57,0v-19H100.39v33h0A8.26,8.26,0,0,1,94.75,739a10.07,10.07,0,0,1-3.16.52c-3,0-5.5-1.41-6.28-3.77-1-3.17,1.48-6.86,5.64-8.24a10,10,0,0,1,3.14-.51h.32V694.75a3,3,0,0,1,3-3h27m0-3h-27a6,6,0,0,0-6,6v29.5a13.26,13.26,0,0,0-1.41.38c-5.73,1.89-9.11,7.29-7.55,12,1.17,3.54,4.76,5.83,9.13,5.83a13,13,0,0,0,4.1-.67,11.22,11.22,0,0,0,7.7-11.11v-30h15.06v13.17a13.35,13.35,0,0,0-1.66.43c-5.73,1.89-9.11,7.29-7.55,12,1.16,3.51,4.82,5.87,9.11,5.87a12.36,12.36,0,0,0,4.2-.74c7.89-2.84,7.88-10.76,7.88-11.1V694.75a6,6,0,0,0-6-6Z"/><path class="cls-8" d="M114.42,561.62H95v.93h-.49v38.92a12.37,12.37,0,0,0-2.74.57c-5,1.66-8.07,6.11-6.81,9.94s6.37,5.58,11.39,3.92a10.1,10.1,0,0,0,6.81-9.94h0v-36.2h11.29Z"/><polyline class="cls-11" points="390.19 793.58 456.94 793.58 456.94 940.59 657.93 940.59"/><circle class="cls-12" cx="390.56" cy="793.58" r="7.52"/><circle class="cls-12" cx="657.55" cy="940.59" r="7.52"/><polyline class="cls-11" points="1173.27 121.51 1284.42 121.51 1284.42 262.52 1366 262.52"/><circle class="cls-12" cx="1173.64" cy="121.51" r="7.52"/><circle class="cls-12" cx="1365.62" cy="262.52" r="7.52"/><rect class="cls-3" x="787.52" y="518.33" width="67.12" height="102.01" rx="8.43" ry="8.43"/><rect class="cls-2" x="793.61" y="524.7" width="54.95" height="73.5" rx="4.9" ry="4.9"/><path class="cls-6" d="M848.56,537.64v54.74a5.82,5.82,0,0,1-5.82,5.82H808.53"/><circle class="cls-6" cx="821.08" cy="609.65" r="5.14"/><rect class="cls-2" x="416.4" y="194.49" width="201.22" height="76.4"/><rect class="cls-3" x="424.36" y="233.27" width="31.21" height="11.38"/><rect class="cls-3" x="444.19" y="215.19" width="11.38" height="11.38"/><rect class="cls-3" x="424.36" y="215.19" width="11.38" height="11.38"/><rect class="cls-3" x="482.71" y="233.27" width="11.38" height="11.38"/><rect class="cls-3" x="462.88" y="233.27" width="11.38" height="11.38"/><rect class="cls-3" x="482.71" y="215.19" width="11.38" height="11.38"/><rect class="cls-3" x="462.88" y="215.19" width="11.38" height="11.38"/><rect class="cls-3" x="521.23" y="233.27" width="11.38" height="11.38"/><rect class="cls-3" x="501.4" y="233.27" width="11.38" height="11.38"/><rect class="cls-3" x="521.23" y="215.19" width="11.38" height="11.38"/><rect class="cls-3" x="501.4" y="215.19" width="11.38" height="11.38"/><rect class="cls-3" x="559.75" y="233.27" width="11.38" height="11.38"/><rect class="cls-3" x="539.92" y="233.27" width="11.38" height="11.38"/><rect class="cls-3" x="559.75" y="215.19" width="11.38" height="11.38"/><rect class="cls-3" x="539.92" y="215.19" width="11.38" height="11.38"/><rect class="cls-3" x="578.44" y="233.27" width="31.21" height="11.38"/><rect class="cls-3" x="444.19" y="251.49" width="11.38" height="11.38"/><rect class="cls-3" x="424.36" y="251.49" width="11.38" height="11.38"/><rect class="cls-3" x="482.71" y="251.49" width="68.59" height="11.38"/><rect class="cls-3" x="462.88" y="251.49" width="11.38" height="11.38"/><rect class="cls-3" x="559.75" y="251.49" width="11.38" height="11.38"/><rect class="cls-3" x="598.28" y="251.49" width="11.38" height="11.38"/><rect class="cls-3" x="578.44" y="251.49" width="11.38" height="11.38"/><rect class="cls-3" x="598.28" y="215.19" width="11.38" height="11.38"/><rect class="cls-3" x="578.44" y="215.19" width="11.38" height="11.38"/><rect class="cls-3" x="444.19" y="202.52" width="11.38" height="5.69"/><rect class="cls-3" x="424.36" y="202.52" width="11.38" height="5.69"/><rect class="cls-3" x="482.71" y="202.52" width="11.38" height="5.69"/><rect class="cls-3" x="462.88" y="202.52" width="11.38" height="5.69"/><rect class="cls-3" x="521.23" y="202.52" width="11.38" height="5.69"/><rect class="cls-3" x="501.4" y="202.52" width="11.38" height="5.69"/><rect class="cls-3" x="559.75" y="202.52" width="11.38" height="5.69"/><rect class="cls-3" x="539.92" y="202.52" width="11.38" height="5.69"/><rect class="cls-3" x="598.28" y="202.52" width="11.38" height="5.69"/><rect class="cls-3" x="578.44" y="202.52" width="11.38" height="5.69"/><path class="cls-1" d="M328.1,171.71h43.66a16.34,16.34,0,0,0,16.34-16.34V118.52a16.34,16.34,0,0,1,16.34-16.34H558.67a12.46,12.46,0,0,1,12.46,12.46V118a12.46,12.46,0,0,1-12.46,12.46H458.93a12.46,12.46,0,0,0-12.46,12.46v3.41a12.46,12.46,0,0,0,12.46,12.46H508.6a12.46,12.46,0,0,1,12.46,12.46v23.11"/><rect class="cls-2" x="308.97" y="158.65" width="11.65" height="25.82" transform="translate(143.23 486.35) rotate(-90)"/><rect class="cls-3" x="291.14" y="163.67" width="5.71" height="15.78" transform="translate(122.44 465.55) rotate(-90)"/><polyline class="cls-3" points="951.05 734.17 951.05 728.38 961.24 728.38 961.24 734.17"/><rect class="cls-3" x="932.05" y="734.06" width="48.19" height="73.94" rx="11.56" ry="11.56"/><path class="cls-2" d="M944,733.82h24.26a11.9,11.9,0,0,1,11.9,11.9v18.43a0,0,0,0,1,0,0H932.1a0,0,0,0,1,0,0V745.73A11.9,11.9,0,0,1,944,733.82Z"/><path class="cls-1" d="M956.14,728.38v-16c0-5.62-5.4-10.18-12.06-10.18H916.34c-6.66,0-12.06,4.56-12.06,10.18v54.07c0,5.62-5.4,10.18-12.06,10.18h-58"/><line class="cls-1" x1="956.14" y1="734.17" x2="956.14" y2="763.57"/><rect class="cls-2" x="816.67" y="764.24" width="11.14" height="24.7" transform="translate(45.65 1598.83) rotate(-90)"/><rect class="cls-3" x="799.61" y="769.04" width="5.47" height="15.1" transform="translate(25.75 1578.93) rotate(-90)"/><rect class="cls-2" x="1099.57" y="894.01" width="85.1" height="15.47" transform="matrix(0, 1, -1, 0, 2043.69, -240.51)"/><polygon class="cls-6" points="1209.43 870.47 1074.81 870.49 1095.74 802.91 1186.98 802.9 1209.43 870.47"/><circle class="cls-6" cx="1165.09" cy="895.21" r="4.29"/><line class="cls-2" x1="1164.68" y1="870.72" x2="1164.68" y2="889.48"/><rect class="cls-2" x="1105.13" y="940.14" width="73.97" height="10.8"/><rect class="cls-3" x="1095.4" y="951" width="93.44" height="13.02"/><rect class="cls-8" x="1138.62" y="747.58" width="8.59" height="24.97"/><rect class="cls-8" x="1080.38" y="757.76" width="8.59" height="24.97" transform="translate(-241.34 877.42) rotate(-40)"/><rect class="cls-8" x="1048.16" y="807.82" width="8.59" height="24.97" transform="translate(61.86 1714.32) rotate(-80)"/><rect class="cls-8" x="1225.62" y="811.93" width="8.59" height="24.97" transform="translate(1828.24 -529.97) rotate(80)"/><rect class="cls-8" x="1195.88" y="759.66" width="8.59" height="24.97" transform="matrix(0.77, 0.64, -0.64, 0.77, 777.11, -590.81)"/><rect class="cls-6" x="873.68" y="178.01" width="86.54" height="9.01"/><rect class="cls-6" x="708.65" y="178.01" width="86.54" height="9.01"/><polygon class="cls-2" points="889.5 186.93 873.3 186.93 873.3 374.27 953.79 374.27 953.79 186.93 937.6 186.93 889.5 186.93"/><rect class="cls-4" x="888.6" y="207.92" width="18.8" height="18.8"/><rect class="cls-4" x="919.7" y="207.92" width="18.8" height="18.8"/><rect class="cls-4" x="888.6" y="239.56" width="18.8" height="18.8"/><rect class="cls-4" x="919.7" y="239.56" width="18.8" height="18.8"/><rect class="cls-4" x="888.6" y="271.2" width="18.8" height="18.8"/><rect class="cls-4" x="919.7" y="271.2" width="18.8" height="18.8"/><rect class="cls-4" x="888.6" y="302.85" width="18.8" height="18.8"/><rect class="cls-4" x="919.7" y="302.85" width="18.8" height="18.8"/><rect class="cls-4" x="888.6" y="334.49" width="18.8" height="18.8"/><rect class="cls-4" x="919.7" y="334.49" width="18.8" height="18.8"/><polygon class="cls-2" points="730.89 186.93 714.7 186.93 714.7 374.27 795.19 374.27 795.19 186.93 778.99 186.93 730.89 186.93"/><rect class="cls-4" x="730" y="207.92" width="18.8" height="18.8"/><rect class="cls-4" x="761.1" y="207.92" width="18.8" height="18.8"/><rect class="cls-4" x="730" y="239.56" width="18.8" height="18.8"/><rect class="cls-4" x="761.1" y="239.56" width="18.8" height="18.8"/><rect class="cls-4" x="730" y="271.2" width="18.8" height="18.8"/><rect class="cls-4" x="761.1" y="271.2" width="18.8" height="18.8"/><rect class="cls-4" x="730" y="302.85" width="18.8" height="18.8"/><rect class="cls-4" x="761.1" y="302.85" width="18.8" height="18.8"/><rect class="cls-4" x="730" y="334.49" width="18.8" height="18.8"/><rect class="cls-4" x="761.1" y="334.49" width="18.8" height="18.8"/><polygon class="cls-2" points="858.4 144.47 858.4 78.55 846.58 78.55 846.58 61.31 822.12 61.31 822.12 78.55 810.3 78.55 810.3 144.47 794.1 144.47 794.1 374.37 874.59 374.37 874.59 144.47 858.4 144.47"/><rect class="cls-4" x="809.4" y="157.79" width="18.8" height="18.8"/><rect class="cls-4" x="840.5" y="157.79" width="18.8" height="18.8"/><rect class="cls-4" x="824.95" y="92.76" width="18.8" height="18.8" transform="translate(936.5 -732.19) rotate(90)"/><rect class="cls-4" x="824.95" y="123.86" width="18.8" height="18.8" transform="translate(967.6 -701.09) rotate(90)"/><rect class="cls-4" x="809.4" y="189.44" width="18.8" height="18.8"/><rect class="cls-4" x="840.5" y="189.44" width="18.8" height="18.8"/><rect class="cls-4" x="809.4" y="221.08" width="18.8" height="18.8"/><rect class="cls-4" x="840.5" y="221.08" width="18.8" height="18.8"/><rect class="cls-4" x="809.4" y="252.73" width="18.8" height="18.8"/><rect class="cls-4" x="840.5" y="252.73" width="18.8" height="18.8"/><rect class="cls-4" x="809.4" y="284.37" width="18.8" height="18.8"/><rect class="cls-4" x="840.5" y="284.37" width="18.8" height="18.8"/><polyline class="cls-1" points="806.05 372.77 806.05 317.74 862.64 317.74 862.64 372.77"/><line class="cls-1" x1="834.35" y1="317.83" x2="834.35" y2="374.23"/><line class="cls-6" x1="834.35" y1="59.56" x2="834.35" y2="37.93"/><rect class="cls-13" x="840.33" y="323.79" width="16.67" height="19.29"/><rect class="cls-13" x="812.23" y="323.79" width="16.67" height="19.29"/><polygon class="cls-6" points="1371.28 564.04 1281.28 564.04 1291.28 518.04 1361.28 518.04 1371.28 564.04"/><rect class="cls-3" x="1207.24" y="340.24" width="238.07" height="179.28" rx="12.21" ry="12.21"/><path class="cls-2" d="M1207.24,485v22.27a12.21,12.21,0,0,0,12.21,12.21H1433.1a12.21,12.21,0,0,0,12.21-12.21V485H1207.24Z"/><rect class="cls-6" x="1216.28" y="349.04" width="220" height="127" rx="12.21" ry="12.21"/><path class="cls-2" d="M1216.28,464.06V358.77c0-5.38,5.53-9.73,12.34-9.73H1417"/><rect class="cls-3" x="1408.18" y="496.17" width="17.78" height="12.37" rx="6.19" ry="6.19"/><rect class="cls-2" x="1262.28" y="562.04" width="128" height="10"/><path class="cls-8" d="M783.43,465.94c2.44-2.48,15.83-15.57,37.18-15.65,21.6-.08,35.18,13.22,37.57,15.65l-4.4,4.4c-2.14-2.12-14.64-14.13-34.14-13.64a47.69,47.69,0,0,0-31.81,13.64Z"/><path class="cls-8" d="M792.33,475.29l4.78,4.78a32.79,32.79,0,0,1,47.36,0l4.78-4.78c-1.8-1.81-12.76-12.49-29.82-11.91A40.86,40.86,0,0,0,792.33,475.29Z"/><path class="cls-8" d="M802.15,484.43a26.3,26.3,0,0,1,37.31,0c-1.85,1.85-2.84,3-4.69,4.85a18.93,18.93,0,0,0-27.87-.19c-1.08-1.17-2.25-2.35-3.52-3.53Z"/><path class="cls-8" d="M821.05,503l-9.14-9.14a13.72,13.72,0,0,1,18.29,0Z"/><polyline class="cls-11" points="633.21 712.57 818.09 712.57 818.09 668.71"/><circle class="cls-12" cx="633.59" cy="712.57" r="7.52"/><circle class="cls-12" cx="818.09" cy="669.08" r="7.52"/><polyline class="cls-11" points="435.91 524.67 239.03 524.67 239.03 484.56"/><circle class="cls-12" cx="435.53" cy="524.67" r="7.52"/><circle class="cls-12" cx="239.03" cy="484.94" r="7.52"/><polyline class="cls-11" points="176.9 99.36 220.1 99.36 220.1 204.56"/><circle class="cls-12" cx="177.28" cy="99.36" r="7.52"/><circle class="cls-12" cx="220.1" cy="204.19" r="7.52"/><polyline class="cls-11" points="1172.58 692.56 1172.58 565.08 1216.44 565.08"/><circle class="cls-12" cx="1172.58" cy="692.19" r="7.52"/><circle class="cls-12" cx="1216.06" cy="565.08" r="7.52"/><polyline class="cls-11" points="1565.92 492.08 1522.06 492.08 1522.06 579.05 1743.57 579.05 1743.57 613.13"/><circle class="cls-12" cx="1565.54" cy="492.08" r="7.52"/><circle class="cls-12" cx="1743.57" cy="612.76" r="7.52"/><polyline class="cls-11" points="1738.06 742.42 1738.06 836.2 1620.22 836.2"/><circle class="cls-12" cx="1738.05" cy="742.79" r="7.52"/><circle class="cls-12" cx="1620.59" cy="836.2" r="7.52"/><line class="cls-11" x1="950.55" y1="629.42" x2="950.55" y2="442.68"/><circle class="cls-12" cx="950.55" cy="629.04" r="7.52"/><circle class="cls-12" cx="950.55" cy="443.06" r="7.52"/><polyline class="cls-11" points="50.33 897.44 50.33 823.58 111.87 823.58"/><circle class="cls-12" cx="50.33" cy="897.07" r="7.52"/><circle class="cls-12" cx="111.5" cy="823.58" r="7.52"/><line class="cls-11" x1="1770.55" y1="396.56" x2="1770.55" y2="294.68"/><circle class="cls-12" cx="1770.55" cy="396.19" r="7.52"/><circle class="cls-12" cx="1770.55" cy="295.06" r="7.52"/><line class="cls-11" x1="635.16" y1="108.26" x2="738.94" y2="108.26"/><circle class="cls-12" cx="635.54" cy="108.26" r="7.52"/><circle class="cls-12" cx="738.56" cy="108.26" r="7.52"/><polygon class="cls-8" points="901.48 932.14 900.06 925.2 884.24 928.43 885.66 935.37 874.38 937.68 885.97 994.46 924.36 986.62 912.76 929.84 901.48 932.14"/><path class="cls-8" d="M920.62,936.92l26.5-5.41a4.78,4.78,0,0,1,5.64,3.73l1.83,8.95a4.78,4.78,0,0,1-3.73,5.64L945.16,951a9.85,9.85,0,0,0-7.68,11.62l1.38,6.74a4.78,4.78,0,0,1-3.73,5.64l-6.37,1.3S920.53,936.93,920.62,936.92Z"/><line class="cls-14" x1="876.27" y1="945.31" x2="913.59" y2="937.69"/><line class="cls-14" x1="884.55" y1="985.83" x2="921.87" y2="978.21"/><path class="cls-3" d="M1632.73,95h-9.21a4.19,4.19,0,0,1-4.18-4.49l4.6-85.17a4.19,4.19,0,0,1,4.18-3.89h0a4.19,4.19,0,0,1,4.18,3.89l4.6,85.17A4.19,4.19,0,0,1,1632.73,95Z"/><path class="cls-3" d="M1733.41,121.46l-105.29,18.08V109.2h104.08a6.19,6.19,0,0,1,6.19,6.19h0A6.19,6.19,0,0,1,1733.41,121.46Z"/><path class="cls-3" d="M1522.84,121.46l105.29,18.08V109.2H1524a6.19,6.19,0,0,0-6.19,6.19h0A6.19,6.19,0,0,0,1522.84,121.46Z"/><path class="cls-2" d="M1403.82,148.78h182.46V188l-184.56-23.39-18.56-28.87a1.66,1.66,0,0,1,2.46-2.17Z"/><path class="cls-2" d="M1852.44,148.78H1670V188l184.56-23.39,18.56-28.87a1.66,1.66,0,0,0-2.46-2.17Z"/><ellipse class="cls-2" cx="1628.13" cy="161.15" rx="64.58" ry="71.74"/><circle class="cls-3" cx="1488" cy="212.61" r="26.29"/><circle class="cls-2" cx="1488" cy="212.61" r="18.45"/><line class="cls-2" x1="1488.57" y1="175.63" x2="1488.57" y2="186.32"/><circle class="cls-3" cx="1768.26" cy="212.61" r="26.29"/><circle class="cls-2" cx="1768.26" cy="212.61" r="18.45"/><line class="cls-2" x1="1768.83" y1="175.63" x2="1768.83" y2="186.32"/><path class="cls-4" d="M1678.95,158.45c-8.82,3.68-33.18,8.88-53.26,8.44-17.55-.39-40-4.93-48.44-8.44.56-7.35,5.76-24.69,8.67-28.93a212.44,212.44,0,0,0,39.77,4.22,212.5,212.5,0,0,0,44.59-4.22C1675.75,135.21,1679.51,153.7,1678.95,158.45Z"/><line class="cls-2" x1="1628.13" y1="133.74" x2="1628.13" y2="166.89"/><rect class="cls-8" x="1395.85" y="383.06" width="98.12" height="62.46" transform="translate(-1.9 6.69) rotate(-0.27)"/><path class="cls-8" d="M1437.94,420.36l-42.23-37.07,98.12-.45L1452,420.29A10.57,10.57,0,0,1,1437.94,420.36Z"/><path class="cls-2" d="M96.55,141.1h15.55c5.11,0,9.36-3.3,9.76-7.58l1.53-16.19H85.27l1.53,16.19C87.2,137.8,91.45,141.1,96.55,141.1Z"/><rect class="cls-3" x="72.54" y="45.86" width="63.58" height="71.66" rx="13.44" ry="13.44"/><rect class="cls-6" x="78.19" y="52.36" width="52.29" height="58.67" rx="7.6" ry="7.6"/><path class="cls-2" d="M78.19,103.43V60a7.6,7.6,0,0,1,7.6-7.6h37.1"/><path class="cls-2" d="M112.11,21.77H96.55c-5.11,0-9.36,3.3-9.76,7.58L85.27,45.55h38.13l-1.53-16.19C121.46,25.08,117.21,21.77,112.11,21.77Z"/><path class="cls-4" d="M136.15,62h1.62a4.36,4.36,0,0,1,4.36,4.36v5.49a4.36,4.36,0,0,1-4.36,4.36h-1.62a0,0,0,0,1,0,0V62A0,0,0,0,1,136.15,62Z"/><path class="cls-8" d="M12.45,64.47h49l29,10.93L79.18,64.47h4.89A11,11,0,0,0,95,53.52V12.45A11,11,0,0,0,84.07,1.5H12.45A11,11,0,0,0,1.5,12.45V53.52A11,11,0,0,0,12.45,64.47Z"/><line class="cls-1" x1="15.83" y1="45.99" x2="74.65" y2="45.99"/><line class="cls-1" x1="15.83" y1="33.93" x2="80.68" y2="33.93"/><line class="cls-1" x1="15.83" y1="21.86" x2="65.6" y2="21.86"/><path class="cls-4" d="M1789.51,543.81a53.27,53.27,0,0,1-46-26.64h-28.06a53,53,0,1,1-54.18-78.68v-.59l6.48,0H1799v.87a53,53,0,0,1-9.51,105.1Z"/><path class="cls-2" d="M1792.54,444.44v-.11H1667.79v0a46.49,46.49,0,1,0,43.78,66.31h35.9a46.5,46.5,0,1,0,45.08-66.25Z"/><polygon class="cls-3" points="1688.35 483.73 1672.15 483.73 1672.15 467.53 1659.55 467.53 1659.55 483.73 1643.35 483.73 1643.35 496.33 1659.55 496.33 1659.55 512.53 1672.15 512.53 1672.15 496.33 1688.35 496.33 1688.35 483.73"/><rect class="cls-3" x="1708.02" y="476" width="15.33" height="5.73"/><rect class="cls-3" x="1734.35" y="476" width="15.33" height="5.73"/><circle class="cls-3" cx="1791.56" cy="471.09" r="8.42"/><circle class="cls-3" cx="1791.56" cy="510" r="8.42"/><circle class="cls-3" cx="1811.02" cy="490.55" r="8.42"/><circle class="cls-3" cx="1772.1" cy="490.55" r="8.42"/><rect class="cls-2" x="1620.18" y="925.17" width="199" height="97" rx="21.27" ry="21.27"/><circle class="cls-3" cx="1646.89" cy="948.72" r="5.78"/><rect class="cls-4" x="1686.18" y="938.5" width="111.93" height="20.44" rx="10" ry="10"/><circle class="cls-3" cx="1665.33" cy="948.72" r="5.78"/><rect class="cls-2" x="1673.68" y="876.94" width="92" height="47.92"/><rect class="cls-8" x="1787.75" y="871.8" width="92" height="102.58" transform="translate(-129.04 321.28) rotate(-9.67)"/><rect class="cls-8" x="1802.06" y="881.53" width="92" height="102.58" transform="translate(-130.48 323.82) rotate(-9.67)"/><line class="cls-1" x1="1810.75" y1="906.93" x2="1858.69" y2="898.75"/><line class="cls-1" x1="1813.35" y1="922.21" x2="1877.28" y2="911.31"/><line class="cls-1" x1="1815.96" y1="937.49" x2="1871.78" y2="927.97"/><line class="cls-1" x1="1818.56" y1="952.77" x2="1882.49" y2="941.87"/><line class="cls-1" x1="1821.17" y1="968.04" x2="1877.98" y2="958.36"/><rect class="cls-3" x="1659.57" y="981.43" width="119.99" height="18"/><rect class="cls-6" x="1659.57" y="992.79" width="119.99" height="6.18"/><rect class="cls-2" x="1728.23" y="634.44" width="42" height="88.5" transform="translate(2427.92 -1070.55) rotate(90)"/><rect class="cls-4" x="1790.48" y="672.52" width="18.35" height="12.34" transform="translate(2478.34 -1120.96) rotate(90)"/><rect class="cls-3" x="1712.07" y="664.68" width="10.5" height="28.02"/><rect class="cls-3" x="1730.32" y="664.68" width="10.5" height="28.02"/><rect class="cls-3" x="1748.57" y="664.68" width="10.5" height="28.02"/><path class="cls-8" d="M1799.42,23.1l-19.72,4.18a5.2,5.2,0,0,0-4,6.16,5.2,5.2,0,0,0-6.16-4L1715.14,41a5.2,5.2,0,0,0-4,6.16l6.35,29.94a5.2,5.2,0,0,0,6.16,4L1778,69.55a5.2,5.2,0,0,0,4-6.16,5.2,5.2,0,0,0,6.16,4l19.72-4.18a5.2,5.2,0,0,0,4-6.16l-6.35-29.94A5.2,5.2,0,0,0,1799.42,23.1Z"/><line class="cls-15" x1="1775.72" y1="32.81" x2="1782.55" y2="65.02"/><line class="cls-8" x1="1725.5" y1="70.98" x2="1761.7" y2="63.3"/><line class="cls-8" x1="1724.05" y1="64.13" x2="1770.03" y2="54.38"/><line class="cls-8" x1="1738.72" y1="49.78" x2="1763.34" y2="44.55"/><rect class="cls-8" x="1723.4" y="48.08" width="9" height="9" transform="translate(26.69 359.63) rotate(-11.97)"/><path class="cls-8" d="M1795.4,33.41l-19.72,4.18a5.2,5.2,0,0,0-4,6.16,5.2,5.2,0,0,0-6.16-4l-54.4,11.54a5.2,5.2,0,0,0-4,6.16l6.35,29.94a5.2,5.2,0,0,0,6.16,4L1774,79.86a5.2,5.2,0,0,0,4-6.16,5.2,5.2,0,0,0,6.16,4l19.72-4.18a5.2,5.2,0,0,0,4-6.16l-6.35-29.94A5.2,5.2,0,0,0,1795.4,33.41Z"/><line class="cls-15" x1="1771.7" y1="43.12" x2="1778.53" y2="75.32"/><line class="cls-8" x1="1721.48" y1="81.29" x2="1757.68" y2="73.61"/><line class="cls-8" x1="1720.03" y1="74.44" x2="1766.01" y2="64.69"/><line class="cls-8" x1="1734.7" y1="60.08" x2="1759.32" y2="54.86"/><rect class="cls-8" x="1719.38" y="58.39" width="9" height="9" transform="translate(24.46 359.02) rotate(-11.97)"/><circle class="cls-4" cx="50" cy="976.74" r="42.46" transform="translate(-110.96 12.06) rotate(-6.54)"/><circle class="cls-2" cx="50" cy="976.74" r="37.04" transform="translate(-110.96 12.06) rotate(-6.54)"/><circle class="cls-3" cx="49.92" cy="975.69" r="15.56" transform="translate(-745.16 407.96) rotate(-51.54)"/><circle class="cls-6" cx="49.92" cy="1001.61" r="4.12" transform="translate(-765.45 417.76) rotate(-51.54)"/><line class="cls-3" x1="69.25" y1="992.15" x2="72.31" y2="994.58"/><line class="cls-3" x1="72.58" y1="986.85" x2="76.15" y2="988.44"/><line class="cls-3" x1="74.5" y1="980.88" x2="78.35" y2="981.53"/><line class="cls-3" x1="74.86" y1="974.62" x2="78.75" y2="974.3"/><line class="cls-3" x1="73.66" y1="968.47" x2="77.35" y2="967.19"/><line class="cls-3" x1="70.97" y1="962.82" x2="74.22" y2="960.66"/><line class="cls-3" x1="64.28" y1="960.68" x2="71.58" y2="953.1"/><line class="cls-3" x1="61.87" y1="954.34" x2="63.68" y2="950.88"/><line class="cls-3" x1="56.03" y1="952.06" x2="56.93" y2="948.26"/><line class="cls-3" x1="49.81" y1="951.3" x2="49.74" y2="947.4"/><line class="cls-3" x1="43.6" y1="952.12" x2="42.55" y2="948.35"/><line class="cls-3" x1="37.78" y1="954.45" x2="35.84" y2="951.06"/><line class="cls-3" x1="32.73" y1="958.15" x2="30" y2="955.36"/><line class="cls-3" x1="28.76" y1="963" x2="25.42" y2="960.97"/><line class="cls-3" x1="26.11" y1="968.68" x2="22.38" y2="967.55"/><line class="cls-3" x1="24.97" y1="974.84" x2="21.07" y2="974.67"/><line class="cls-3" x1="25.39" y1="981.09" x2="21.57" y2="981.9"/><line class="cls-3" x1="27.35" y1="987.04" x2="23.85" y2="988.77"/><line class="cls-3" x1="30.73" y1="992.32" x2="27.77" y2="994.87"/></g></g></svg>